<svg width="42" height="41" viewBox="0 0 42 41" fill="none" xmlns="http://www.w3.org/2000/svg">
<path d="M36.265 10.4782C39.0735 10.4782 41.3502 8.20073 41.3502 5.39128C41.3502 2.58183 39.0735 0.304321 36.265 0.304321C33.4565 0.304321 31.1798 2.58183 31.1798 5.39128C31.1798 8.20073 33.4565 10.4782 36.265 10.4782Z" fill="#999999"/>
<path d="M18.4667 5.39128C17.4801 5.39128 16.5139 5.47775 15.5681 5.63035C14.5917 2.54257 11.7033 0.304321 8.29621 0.304321C4.08564 0.304321 0.668365 3.72276 0.668365 7.93476C0.668365 10.2697 1.72101 12.3604 3.37371 13.7593C1.65999 16.4961 0.668365 19.7263 0.668365 23.1956C0.668365 33.0287 8.63692 41 18.4667 41C28.2964 41 36.265 33.0287 36.265 23.1956C36.265 13.3625 28.2964 5.39128 18.4667 5.39128ZM25.408 28.2826C24.5283 26.7616 22.8908 25.7391 21.0093 25.7391C19.1278 25.7391 17.4903 26.7616 16.6106 28.2826C16.1783 27.5348 15.9241 26.665 15.9241 25.7391C15.9241 22.9311 18.2022 20.6522 21.0093 20.6522C23.8163 20.6522 26.0945 22.9311 26.0945 25.7391C26.0945 26.665 25.8403 27.5348 25.408 28.2826Z" fill="#999999"/>
</svg>
